<svg width="151" height="38" viewBox="0 0 151 38" fill="none" xmlns="http://www.w3.org/2000/svg">
<g filter="url(#filter0_dd_1019_33137)">
<g clip-path="url(#clip0_1019_33137)">
<rect x="3" y="2" width="32" height="32" rx="8" fill="white"/>
<rect x="3" y="2" width="32" height="32" rx="8" fill="url(#paint0_linear_1019_33137)"/>
<path fill-rule="evenodd" clip-rule="evenodd" d="M19 4.03885C11.2895 4.03885 5.03884 10.2895 5.03884 18C5.03884 25.7106 11.2895 31.9612 19 31.9612C26.7105 31.9612 32.9612 25.7106 32.9612 18C32.9612 10.2895 26.7105 4.03885 19 4.03885ZM4.96117 18C4.96117 10.2466 11.2466 3.96118 19 3.96118C26.7534 3.96118 33.0388 10.2466 33.0388 18C33.0388 25.7535 26.7534 32.0389 19 32.0389C11.2466 32.0389 4.96117 25.7535 4.96117 18Z" fill="#D0D5DD"/>
<path fill-rule="evenodd" clip-rule="evenodd" d="M19 14.0779C16.8338 14.0779 15.0777 15.834 15.0777 18.0002C15.0777 20.1665 16.8338 21.9226 19 21.9226C21.1663 21.9226 22.9223 20.1665 22.9223 18.0002C22.9223 15.834 21.1663 14.0779 19 14.0779ZM15 18.0002C15 15.7911 16.7909 14.0002 19 14.0002C21.2092 14.0002 23 15.7911 23 18.0002C23 20.2094 21.2092 22.0002 19 22.0002C16.7909 22.0002 15 20.2094 15 18.0002Z" fill="#D0D5DD"/>
<path fill-rule="evenodd" clip-rule="evenodd" d="M19 15.3201C17.5201 15.3201 16.3204 16.5198 16.3204 17.9997C16.3204 19.4796 17.5201 20.6793 19 20.6793C20.4799 20.6793 21.6796 19.4796 21.6796 17.9997C21.6796 16.5198 20.4799 15.3201 19 15.3201ZM16.2427 17.9997C16.2427 16.4769 17.4772 15.2424 19 15.2424C20.5228 15.2424 21.7573 16.4769 21.7573 17.9997C21.7573 19.5225 20.5228 20.757 19 20.757C17.4772 20.757 16.2427 19.5225 16.2427 17.9997Z" fill="#D0D5DD"/>
<path d="M18.9612 2H19.0388V34H18.9612V2Z" fill="#D0D5DD"/>
<path d="M35 17.9609L35 18.0386L3 18.0386L3 17.9609L35 17.9609Z" fill="#D0D5DD"/>
<path d="M29.602 2H29.6796V34H29.602V2Z" fill="#D0D5DD"/>
<path d="M13.6408 2H13.7184V34H13.6408V2Z" fill="#D0D5DD"/>
<path d="M24.2816 2H24.3592V34H24.2816V2Z" fill="#D0D5DD"/>
<path d="M8.32037 2H8.39804V34H8.32037V2Z" fill="#D0D5DD"/>
<path d="M35 28.6016L35 28.6792L3 28.6792L3 28.6016L35 28.6016Z" fill="#D0D5DD"/>
<path d="M35 12.6406L35 12.7183L3 12.7183L3 12.6406L35 12.6406Z" fill="#D0D5DD"/>
<path d="M35 23.2812L35 23.3589L3 23.3589L3 23.2812L35 23.2812Z" fill="#D0D5DD"/>
<path d="M35 7.32031L35 7.39798L3 7.39798L3 7.32031L35 7.32031Z" fill="#D0D5DD"/>
<g clip-path="url(#clip1_1019_33137)">
<g filter="url(#filter1_i_1019_33137)">
<path fill-rule="evenodd" clip-rule="evenodd" d="M12.6982 20.3016H17.0601L23.4108 26.6107L19.0489 30.9441L12.6982 24.6349V20.3016Z" fill="#BF1C00"/>
</g>
<g filter="url(#filter2_i_1019_33137)">
<path fill-rule="evenodd" clip-rule="evenodd" d="M16.0428 24.2616L19.0739 21.2504H28.1026V27.2728H19.0739L16.0428 24.2616Z" fill="#66C0FF"/>
</g>
<g filter="url(#filter3_i_1019_33137)">
<path fill-rule="evenodd" clip-rule="evenodd" d="M21.3277 24.4895V20.2309L27.7134 13.8869L32 18.1455L25.6143 24.4895H21.3277Z" fill="#0096FF"/>
</g>
<g filter="url(#filter4_i_1019_33137)">
<path fill-rule="evenodd" clip-rule="evenodd" d="M25.1045 21.1054L22.0545 18.0753V8.9848H28.1544V18.0751L25.1045 21.1054Z" fill="#70AC46"/>
</g>
<g filter="url(#filter5_i_1019_33137)">
<path fill-rule="evenodd" clip-rule="evenodd" d="M25.4889 15.892H21.1761L14.7069 9.46486L19.0198 5.1803L25.4892 11.6074L25.4889 15.892Z" fill="#A8D08C"/>
</g>
<g filter="url(#filter6_i_1019_33137)">
<path fill-rule="evenodd" clip-rule="evenodd" d="M21.9151 12.1656L18.8226 15.238H9.85535V9.09338H18.8224L21.9151 12.1656Z" fill="#FFE5AE"/>
</g>
<g filter="url(#filter7_i_1019_33137)">
<path fill-rule="evenodd" clip-rule="evenodd" d="M16.8707 11.8118V16.1576L10.5288 22.4579L6.1548 18.1122L12.4966 11.8118H16.8707Z" fill="#FFD478"/>
</g>
<g filter="url(#filter8_i_1019_33137)">
<path fill-rule="evenodd" clip-rule="evenodd" d="M12.9206 15.2382L16.0043 18.3018V27.2249H9.8367V18.302L12.9206 15.2382Z" fill="#FF2600"/>
</g>
<g filter="url(#filter9_i_1019_33137)">
<path fill-rule="evenodd" clip-rule="evenodd" d="M12.6986 20.3009H15.9914V27.9089L12.6986 24.6376V20.3009Z" fill="#BF1C00"/>
</g>
</g>
</g>
<rect x="3.1" y="2.1" width="31.8" height="31.8" rx="7.9" stroke="#D0D5DD" stroke-width="0.2"/>
</g>
<path d="M46.4347 25V10.4545H51.8892C53.0066 10.4545 53.9441 10.6487 54.7017 11.0369C55.464 11.4252 56.0393 11.9697 56.4276 12.6705C56.8205 13.3665 57.017 14.1785 57.017 15.1065C57.017 16.0393 56.8182 16.849 56.4205 17.5355C56.0275 18.2173 55.4474 18.7453 54.6804 19.1193C53.9134 19.4886 52.9711 19.6733 51.8537 19.6733H47.9688V17.4858H51.4986C52.152 17.4858 52.687 17.3958 53.1037 17.2159C53.5204 17.0312 53.8281 16.7637 54.027 16.4134C54.2306 16.0582 54.3324 15.6226 54.3324 15.1065C54.3324 14.5904 54.2306 14.1501 54.027 13.7855C53.8234 13.4162 53.5133 13.1368 53.0966 12.9474C52.6799 12.7533 52.1425 12.6562 51.4844 12.6562H49.0696V25H46.4347ZM53.9489 18.4091L57.5497 25H54.6094L51.0724 18.4091H53.9489ZM63.5311 25.2131C62.4658 25.2131 61.5425 24.9787 60.7612 24.5099C59.98 24.0412 59.3739 23.3854 58.943 22.5426C58.5169 21.6998 58.3038 20.715 58.3038 19.5881C58.3038 18.4612 58.5169 17.474 58.943 16.6264C59.3739 15.7789 59.98 15.1207 60.7612 14.652C61.5425 14.1832 62.4658 13.9489 63.5311 13.9489C64.5964 13.9489 65.5197 14.1832 66.301 14.652C67.0822 15.1207 67.6859 15.7789 68.1121 16.6264C68.5429 17.474 68.7584 18.4612 68.7584 19.5881C68.7584 20.715 68.5429 21.6998 68.1121 22.5426C67.6859 23.3854 67.0822 24.0412 66.301 24.5099C65.5197 24.9787 64.5964 25.2131 63.5311 25.2131ZM63.5453 23.1534C64.123 23.1534 64.6059 22.9948 64.9942 22.6776C65.3824 22.3556 65.6713 21.9247 65.8607 21.3849C66.0548 20.8452 66.1518 20.2438 66.1518 19.581C66.1518 18.9134 66.0548 18.3097 65.8607 17.7699C65.6713 17.2254 65.3824 16.7921 64.9942 16.4702C64.6059 16.1482 64.123 15.9872 63.5453 15.9872C62.9535 15.9872 62.461 16.1482 62.068 16.4702C61.6798 16.7921 61.3886 17.2254 61.1945 17.7699C61.0051 18.3097 60.9104 18.9134 60.9104 19.581C60.9104 20.2438 61.0051 20.8452 61.1945 21.3849C61.3886 21.9247 61.6798 22.3556 62.068 22.6776C62.461 22.9948 62.9535 23.1534 63.5453 23.1534ZM73.6798 25.2202C72.9885 25.2202 72.3658 25.0971 71.8119 24.8509C71.2626 24.5999 70.827 24.2306 70.505 23.7429C70.1878 23.2552 70.0292 22.6539 70.0292 21.9389C70.0292 21.3234 70.1428 20.8144 70.3701 20.4119C70.5974 20.0095 70.9075 19.6875 71.3005 19.446C71.6935 19.2045 72.1362 19.0223 72.6286 18.8991C73.1258 18.7713 73.6395 18.679 74.1698 18.6222C74.809 18.5559 75.3275 18.4967 75.7252 18.4446C76.1229 18.3878 76.4118 18.3026 76.5917 18.1889C76.7764 18.0705 76.8687 17.8883 76.8687 17.642V17.5994C76.8687 17.0644 76.7101 16.6501 76.3928 16.3565C76.0756 16.063 75.6187 15.9162 75.0221 15.9162C74.3924 15.9162 73.8928 16.0535 73.5235 16.3281C73.1589 16.6027 72.9127 16.9271 72.7849 17.3011L70.3843 16.9602C70.5737 16.2973 70.8862 15.7434 71.3218 15.2983C71.7574 14.8485 72.2901 14.5123 72.9198 14.2898C73.5496 14.0625 74.2456 13.9489 75.0079 13.9489C75.5335 13.9489 76.0567 14.0104 76.5775 14.1335C77.0983 14.2566 77.5742 14.4602 78.005 14.7443C78.4359 15.0237 78.7816 15.4048 79.042 15.8878C79.3071 16.3707 79.4397 16.9744 79.4397 17.6989V25H76.9681V23.5014H76.8829C76.7266 23.8045 76.5065 24.0885 76.2224 24.3537C75.943 24.6141 75.5903 24.8248 75.1641 24.9858C74.7427 25.142 74.2479 25.2202 73.6798 25.2202ZM74.3474 23.331C74.8635 23.331 75.3109 23.2292 75.6897 23.0256C76.0685 22.8172 76.3597 22.5426 76.5633 22.2017C76.7716 21.8608 76.8758 21.4891 76.8758 21.0866V19.8011C76.7953 19.8674 76.658 19.929 76.4639 19.9858C76.2745 20.0426 76.0614 20.0923 75.8246 20.1349C75.5879 20.1776 75.3535 20.2154 75.1215 20.2486C74.8895 20.2817 74.6883 20.3101 74.5178 20.3338C74.1343 20.3859 73.791 20.4711 73.488 20.5895C73.185 20.7079 72.9459 20.8736 72.7707 21.0866C72.5955 21.295 72.5079 21.5649 72.5079 21.8963C72.5079 22.3698 72.6807 22.7273 73.0264 22.9688C73.372 23.2102 73.8123 23.331 74.3474 23.331ZM84.7641 25.2202C84.0728 25.2202 83.4502 25.0971 82.8962 24.8509C82.347 24.5999 81.9114 24.2306 81.5894 23.7429C81.2722 23.2552 81.1136 22.6539 81.1136 21.9389C81.1136 21.3234 81.2272 20.8144 81.4545 20.4119C81.6817 20.0095 81.9919 19.6875 82.3849 19.446C82.7779 19.2045 83.2206 19.0223 83.713 18.8991C84.2102 18.7713 84.7239 18.679 85.2542 18.6222C85.8934 18.5559 86.4119 18.4967 86.8096 18.4446C87.2073 18.3878 87.4961 18.3026 87.6761 18.1889C87.8607 18.0705 87.9531 17.8883 87.9531 17.642V17.5994C87.9531 17.0644 87.7944 16.6501 87.4772 16.3565C87.16 16.063 86.7031 15.9162 86.1065 15.9162C85.4767 15.9162 84.9772 16.0535 84.6079 16.3281C84.2433 16.6027 83.9971 16.9271 83.8692 17.3011L81.4687 16.9602C81.6581 16.2973 81.9706 15.7434 82.4062 15.2983C82.8418 14.8485 83.3745 14.5123 84.0042 14.2898C84.6339 14.0625 85.3299 13.9489 86.0923 13.9489C86.6178 13.9489 87.141 14.0104 87.6619 14.1335C88.1827 14.2566 88.6585 14.4602 89.0894 14.7443C89.5203 15.0237 89.8659 15.4048 90.1263 15.8878C90.3915 16.3707 90.5241 16.9744 90.5241 17.6989V25H88.0525V23.5014H87.9673C87.811 23.8045 87.5908 24.0885 87.3067 24.3537C87.0274 24.6141 86.6746 24.8248 86.2485 24.9858C85.8271 25.142 85.3323 25.2202 84.7641 25.2202ZM85.4317 23.331C85.9478 23.331 86.3953 23.2292 86.7741 23.0256C87.1529 22.8172 87.4441 22.5426 87.6477 22.2017C87.856 21.8608 87.9602 21.4891 87.9602 21.0866V19.8011C87.8797 19.8674 87.7424 19.929 87.5482 19.9858C87.3588 20.0426 87.1458 20.0923 86.909 20.1349C86.6723 20.1776 86.4379 20.2154 86.2059 20.2486C85.9739 20.2817 85.7727 20.3101 85.6022 20.3338C85.2187 20.3859 84.8754 20.4711 84.5724 20.5895C84.2693 20.7079 84.0302 20.8736 83.855 21.0866C83.6799 21.295 83.5923 21.5649 83.5923 21.8963C83.5923 22.3698 83.7651 22.7273 84.1107 22.9688C84.4564 23.2102 84.8967 23.331 85.4317 23.331ZM97.3839 25V10.4545H102.838C103.956 10.4545 104.893 10.6629 105.651 11.0795C106.413 11.4962 106.989 12.0691 107.377 12.7983C107.77 13.5227 107.966 14.3466 107.966 15.2699C107.966 16.2027 107.77 17.0312 107.377 17.7557C106.984 18.4801 106.404 19.0507 105.637 19.4673C104.87 19.8793 103.925 20.0852 102.803 20.0852H99.1879V17.919H102.448C103.101 17.919 103.636 17.8054 104.053 17.5781C104.47 17.3509 104.777 17.0384 104.976 16.6406C105.18 16.2429 105.282 15.786 105.282 15.2699C105.282 14.7538 105.18 14.2992 104.976 13.9062C104.777 13.5133 104.467 13.2079 104.046 12.9901C103.629 12.7675 103.092 12.6562 102.434 12.6562H100.019V25H97.3839ZM114.344 25.2131C113.278 25.2131 112.355 24.9787 111.574 24.5099C110.792 24.0412 110.186 23.3854 109.756 22.5426C109.329 21.6998 109.116 20.715 109.116 19.5881C109.116 18.4612 109.329 17.474 109.756 16.6264C110.186 15.7789 110.792 15.1207 111.574 14.652C112.355 14.1832 113.278 13.9489 114.344 13.9489C115.409 13.9489 116.332 14.1832 117.113 14.652C117.895 15.1207 118.498 15.7789 118.925 16.6264C119.355 17.474 119.571 18.4612 119.571 19.5881C119.571 20.715 119.355 21.6998 118.925 22.5426C118.498 23.3854 117.895 24.0412 117.113 24.5099C116.332 24.9787 115.409 25.2131 114.344 25.2131ZM114.358 23.1534C114.935 23.1534 115.418 22.9948 115.807 22.6776C116.195 22.3556 116.484 21.9247 116.673 21.3849C116.867 20.8452 116.964 20.2438 116.964 19.581C116.964 18.9134 116.867 18.3097 116.673 17.7699C116.484 17.2254 116.195 16.7921 115.807 16.4702C115.418 16.1482 114.935 15.9872 114.358 15.9872C113.766 15.9872 113.274 16.1482 112.881 16.4702C112.492 16.7921 112.201 17.2254 112.007 17.7699C111.818 18.3097 111.723 18.9134 111.723 19.581C111.723 20.2438 111.818 20.8452 112.007 21.3849C112.201 21.9247 112.492 22.3556 112.881 22.6776C113.274 22.9948 113.766 23.1534 114.358 23.1534ZM121.353 25V14.0909H123.846V15.9091H123.96C124.158 15.2794 124.499 14.794 124.982 14.4531C125.47 14.1075 126.026 13.9347 126.651 13.9347C126.793 13.9347 126.952 13.9418 127.127 13.956C127.307 13.9654 127.456 13.982 127.575 14.0057V16.3707C127.466 16.3329 127.293 16.2997 127.056 16.2713C126.824 16.2382 126.599 16.2216 126.381 16.2216C125.913 16.2216 125.491 16.3234 125.117 16.527C124.748 16.7259 124.457 17.0028 124.244 17.358C124.031 17.7131 123.924 18.1226 123.924 18.5866V25H121.353ZM134.916 14.0909V16.0795H128.645V14.0909H134.916ZM130.193 11.4773H132.764V21.7188C132.764 22.0644 132.816 22.3295 132.92 22.5142C133.029 22.6941 133.171 22.8172 133.347 22.8835C133.522 22.9498 133.716 22.983 133.929 22.983C134.09 22.983 134.237 22.9711 134.369 22.9474C134.507 22.9238 134.611 22.9025 134.682 22.8835L135.115 24.8935C134.978 24.9408 134.781 24.9929 134.526 25.0497C134.275 25.1065 133.967 25.1397 133.602 25.1491C132.958 25.1681 132.378 25.071 131.862 24.858C131.346 24.6402 130.936 24.304 130.633 23.8494C130.335 23.3949 130.188 22.8267 130.193 22.1449V11.4773ZM139.806 25.2202C139.114 25.2202 138.492 25.0971 137.938 24.8509C137.388 24.5999 136.953 24.2306 136.631 23.7429C136.314 23.2552 136.155 22.6539 136.155 21.9389C136.155 21.3234 136.269 20.8144 136.496 20.4119C136.723 20.0095 137.033 19.6875 137.426 19.446C137.819 19.2045 138.262 19.0223 138.754 18.8991C139.252 18.7713 139.765 18.679 140.296 18.6222C140.935 18.5559 141.453 18.4967 141.851 18.4446C142.249 18.3878 142.538 18.3026 142.717 18.1889C142.902 18.0705 142.994 17.8883 142.994 17.642V17.5994C142.994 17.0644 142.836 16.6501 142.519 16.3565C142.201 16.063 141.744 15.9162 141.148 15.9162C140.518 15.9162 140.019 16.0535 139.649 16.3281C139.285 16.6027 139.038 16.9271 138.911 17.3011L136.51 16.9602C136.699 16.2973 137.012 15.7434 137.448 15.2983C137.883 14.8485 138.416 14.5123 139.046 14.2898C139.675 14.0625 140.371 13.9489 141.134 13.9489C141.659 13.9489 142.182 14.0104 142.703 14.1335C143.224 14.2566 143.7 14.4602 144.131 14.7443C144.562 15.0237 144.907 15.4048 145.168 15.8878C145.433 16.3707 145.565 16.9744 145.565 17.6989V25H143.094V23.5014H143.009C142.852 23.8045 142.632 24.0885 142.348 24.3537C142.069 24.6141 141.716 24.8248 141.29 24.9858C140.869 25.142 140.374 25.2202 139.806 25.2202ZM140.473 23.331C140.989 23.331 141.437 23.2292 141.815 23.0256C142.194 22.8172 142.485 22.5426 142.689 22.2017C142.897 21.8608 143.002 21.4891 143.002 21.0866V19.8011C142.921 19.8674 142.784 19.929 142.59 19.9858C142.4 20.0426 142.187 20.0923 141.95 20.1349C141.714 20.1776 141.479 20.2154 141.247 20.2486C141.015 20.2817 140.814 20.3101 140.644 20.3338C140.26 20.3859 139.917 20.4711 139.614 20.5895C139.311 20.7079 139.072 20.8736 138.896 21.0866C138.721 21.295 138.634 21.5649 138.634 21.8963C138.634 22.3698 138.806 22.7273 139.152 22.9688C139.498 23.2102 139.938 23.331 140.473 23.331ZM150.322 10.4545V25H147.751V10.4545H150.322Z" fill="#102A56"/>
<defs>
<filter id="filter0_dd_1019_33137" x="0" y="0" width="38" height="38" filterUnits="userSpaceOnUse" color-interpolation-filters="sRGB">
<feFlood flood-opacity="0" result="BackgroundImageFix"/>
<feColorMatrix in="SourceAlpha" type="matrix" values="0 0 0 0 0 0 0 0 0 0 0 0 0 0 0 0 0 0 127 0" result="hardAlpha"/>
<feOffset dy="1"/>
<feGaussianBlur stdDeviation="1"/>
<feColorMatrix type="matrix" values="0 0 0 0 0.0627451 0 0 0 0 0.0941176 0 0 0 0 0.156863 0 0 0 0.06 0"/>
<feBlend mode="normal" in2="BackgroundImageFix" result="effect1_dropShadow_1019_33137"/>
<feColorMatrix in="SourceAlpha" type="matrix" values="0 0 0 0 0 0 0 0 0 0 0 0 0 0 0 0 0 0 127 0" result="hardAlpha"/>
<feOffset dy="1"/>
<feGaussianBlur stdDeviation="1.5"/>
<feColorMatrix type="matrix" values="0 0 0 0 0.0627451 0 0 0 0 0.0941176 0 0 0 0 0.156863 0 0 0 0.1 0"/>
<feBlend mode="normal" in2="effect1_dropShadow_1019_33137" result="effect2_dropShadow_1019_33137"/>
<feBlend mode="normal" in="SourceGraphic" in2="effect2_dropShadow_1019_33137" result="shape"/>
</filter>
<filter id="filter1_i_1019_33137" x="12.6982" y="20.3016" width="10.7125" height="10.6425" filterUnits="userSpaceOnUse" color-interpolation-filters="sRGB">
<feFlood flood-opacity="0" result="BackgroundImageFix"/>
<feBlend mode="normal" in="SourceGraphic" in2="BackgroundImageFix" result="shape"/>
<feColorMatrix in="SourceAlpha" type="matrix" values="0 0 0 0 0 0 0 0 0 0 0 0 0 0 0 0 0 0 127 0" result="hardAlpha"/>
<feOffset/>
<feGaussianBlur stdDeviation="0.5"/>
<feComposite in2="hardAlpha" operator="arithmetic" k2="-1" k3="1"/>
<feColorMatrix type="matrix" values="0 0 0 0 0 0 0 0 0 0 0 0 0 0 0 0 0 0 0.25 0"/>
<feBlend mode="normal" in2="shape" result="effect1_innerShadow_1019_33137"/>
</filter>
<filter id="filter2_i_1019_33137" x="16.0428" y="21.2504" width="12.0597" height="6.02246" filterUnits="userSpaceOnUse" color-interpolation-filters="sRGB">
<feFlood flood-opacity="0" result="BackgroundImageFix"/>
<feBlend mode="normal" in="SourceGraphic" in2="BackgroundImageFix" result="shape"/>
<feColorMatrix in="SourceAlpha" type="matrix" values="0 0 0 0 0 0 0 0 0 0 0 0 0 0 0 0 0 0 127 0" result="hardAlpha"/>
<feOffset/>
<feGaussianBlur stdDeviation="0.5"/>
<feComposite in2="hardAlpha" operator="arithmetic" k2="-1" k3="1"/>
<feColorMatrix type="matrix" values="0 0 0 0 0 0 0 0 0 0 0 0 0 0 0 0 0 0 0.25 0"/>
<feBlend mode="normal" in2="shape" result="effect1_innerShadow_1019_33137"/>
</filter>
<filter id="filter3_i_1019_33137" x="21.3277" y="13.8869" width="10.6723" height="10.6025" filterUnits="userSpaceOnUse" color-interpolation-filters="sRGB">
<feFlood flood-opacity="0" result="BackgroundImageFix"/>
<feBlend mode="normal" in="SourceGraphic" in2="BackgroundImageFix" result="shape"/>
<feColorMatrix in="SourceAlpha" type="matrix" values="0 0 0 0 0 0 0 0 0 0 0 0 0 0 0 0 0 0 127 0" result="hardAlpha"/>
<feOffset/>
<feGaussianBlur stdDeviation="0.5"/>
<feComposite in2="hardAlpha" operator="arithmetic" k2="-1" k3="1"/>
<feColorMatrix type="matrix" values="0 0 0 0 0 0 0 0 0 0 0 0 0 0 0 0 0 0 0.25 0"/>
<feBlend mode="normal" in2="shape" result="effect1_innerShadow_1019_33137"/>
</filter>
<filter id="filter4_i_1019_33137" x="22.0545" y="8.9848" width="6.09991" height="12.1206" filterUnits="userSpaceOnUse" color-interpolation-filters="sRGB">
<feFlood flood-opacity="0" result="BackgroundImageFix"/>
<feBlend mode="normal" in="SourceGraphic" in2="BackgroundImageFix" result="shape"/>
<feColorMatrix in="SourceAlpha" type="matrix" values="0 0 0 0 0 0 0 0 0 0 0 0 0 0 0 0 0 0 127 0" result="hardAlpha"/>
<feOffset/>
<feGaussianBlur stdDeviation="0.5"/>
<feComposite in2="hardAlpha" operator="arithmetic" k2="-1" k3="1"/>
<feColorMatrix type="matrix" values="0 0 0 0 0 0 0 0 0 0 0 0 0 0 0 0 0 0 0.25 0"/>
<feBlend mode="normal" in2="shape" result="effect1_innerShadow_1019_33137"/>
</filter>
<filter id="filter5_i_1019_33137" x="14.7069" y="5.1803" width="10.7823" height="10.7117" filterUnits="userSpaceOnUse" color-interpolation-filters="sRGB">
<feFlood flood-opacity="0" result="BackgroundImageFix"/>
<feBlend mode="normal" in="SourceGraphic" in2="BackgroundImageFix" result="shape"/>
<feColorMatrix in="SourceAlpha" type="matrix" values="0 0 0 0 0 0 0 0 0 0 0 0 0 0 0 0 0 0 127 0" result="hardAlpha"/>
<feOffset/>
<feGaussianBlur stdDeviation="0.5"/>
<feComposite in2="hardAlpha" operator="arithmetic" k2="-1" k3="1"/>
<feColorMatrix type="matrix" values="0 0 0 0 0 0 0 0 0 0 0 0 0 0 0 0 0 0 0.25 0"/>
<feBlend mode="normal" in2="shape" result="effect1_innerShadow_1019_33137"/>
</filter>
<filter id="filter6_i_1019_33137" x="9.85535" y="9.09338" width="12.0597" height="6.14465" filterUnits="userSpaceOnUse" color-interpolation-filters="sRGB">
<feFlood flood-opacity="0" result="BackgroundImageFix"/>
<feBlend mode="normal" in="SourceGraphic" in2="BackgroundImageFix" result="shape"/>
<feColorMatrix in="SourceAlpha" type="matrix" values="0 0 0 0 0 0 0 0 0 0 0 0 0 0 0 0 0 0 127 0" result="hardAlpha"/>
<feOffset/>
<feGaussianBlur stdDeviation="0.5"/>
<feComposite in2="hardAlpha" operator="arithmetic" k2="-1" k3="1"/>
<feColorMatrix type="matrix" values="0 0 0 0 0 0 0 0 0 0 0 0 0 0 0 0 0 0 0.25 0"/>
<feBlend mode="normal" in2="shape" result="effect1_innerShadow_1019_33137"/>
</filter>
<filter id="filter7_i_1019_33137" x="6.1548" y="11.8118" width="10.7159" height="10.6461" filterUnits="userSpaceOnUse" color-interpolation-filters="sRGB">
<feFlood flood-opacity="0" result="BackgroundImageFix"/>
<feBlend mode="normal" in="SourceGraphic" in2="BackgroundImageFix" result="shape"/>
<feColorMatrix in="SourceAlpha" type="matrix" values="0 0 0 0 0 0 0 0 0 0 0 0 0 0 0 0 0 0 127 0" result="hardAlpha"/>
<feOffset/>
<feGaussianBlur stdDeviation="0.5"/>
<feComposite in2="hardAlpha" operator="arithmetic" k2="-1" k3="1"/>
<feColorMatrix type="matrix" values="0 0 0 0 0 0 0 0 0 0 0 0 0 0 0 0 0 0 0.25 0"/>
<feBlend mode="normal" in2="shape" result="effect1_innerShadow_1019_33137"/>
</filter>
<filter id="filter8_i_1019_33137" x="9.8367" y="15.2382" width="6.16765" height="11.9867" filterUnits="userSpaceOnUse" color-interpolation-filters="sRGB">
<feFlood flood-opacity="0" result="BackgroundImageFix"/>
<feBlend mode="normal" in="SourceGraphic" in2="BackgroundImageFix" result="shape"/>
<feColorMatrix in="SourceAlpha" type="matrix" values="0 0 0 0 0 0 0 0 0 0 0 0 0 0 0 0 0 0 127 0" result="hardAlpha"/>
<feOffset/>
<feGaussianBlur stdDeviation="0.5"/>
<feComposite in2="hardAlpha" operator="arithmetic" k2="-1" k3="1"/>
<feColorMatrix type="matrix" values="0 0 0 0 0 0 0 0 0 0 0 0 0 0 0 0 0 0 0.25 0"/>
<feBlend mode="normal" in2="shape" result="effect1_innerShadow_1019_33137"/>
</filter>
<filter id="filter9_i_1019_33137" x="12.6986" y="20.3009" width="3.29277" height="7.60797" filterUnits="userSpaceOnUse" color-interpolation-filters="sRGB">
<feFlood flood-opacity="0" result="BackgroundImageFix"/>
<feBlend mode="normal" in="SourceGraphic" in2="BackgroundImageFix" result="shape"/>
<feColorMatrix in="SourceAlpha" type="matrix" values="0 0 0 0 0 0 0 0 0 0 0 0 0 0 0 0 0 0 127 0" result="hardAlpha"/>
<feOffset/>
<feGaussianBlur stdDeviation="0.5"/>
<feComposite in2="hardAlpha" operator="arithmetic" k2="-1" k3="1"/>
<feColorMatrix type="matrix" values="0 0 0 0 0 0 0 0 0 0 0 0 0 0 0 0 0 0 0.25 0"/>
<feBlend mode="normal" in2="shape" result="effect1_innerShadow_1019_33137"/>
</filter>
<linearGradient id="paint0_linear_1019_33137" x1="19" y1="2" x2="19" y2="34" gradientUnits="userSpaceOnUse">
<stop stop-color="white"/>
<stop offset="1" stop-color="#D0D5DD"/>
</linearGradient>
<clipPath id="clip0_1019_33137">
<rect x="3" y="2" width="32" height="32" rx="8" fill="white"/>
</clipPath>
<clipPath id="clip1_1019_33137">
<rect width="26" height="26" fill="white" transform="translate(6 5)"/>
</clipPath>
</defs>
</svg>
