<svg width="16" height="16" viewBox="0 0 16 16" fill="none" xmlns="http://www.w3.org/2000/svg">
<g clip-path="url(#clip0_5513_394817)">
<path d="M8 16C12.4183 16 16 12.4183 16 8C16 3.58172 12.4183 0 8 0C3.58172 0 0 3.58172 0 8C0 12.4183 3.58172 16 8 16Z" fill="#F0F0F0"/>
<path d="M1.65355 3.12842C1.02514 3.94601 0.551297 4.88836 0.275391 5.91207H4.4372L1.65355 3.12842Z" fill="#0052B4"/>
<path d="M15.7243 5.91253C15.4483 4.88884 14.9745 3.9465 14.3461 3.12891L11.5625 5.91253H15.7243Z" fill="#0052B4"/>
<path d="M0.275391 10.0869C0.551328 11.1106 1.02517 12.0529 1.65355 12.8705L4.43711 10.0869H0.275391Z" fill="#0052B4"/>
<path d="M12.8701 1.65309C12.0525 1.02468 11.1101 0.55084 10.0864 0.274902V4.43669L12.8701 1.65309Z" fill="#0052B4"/>
<path d="M3.12891 14.3451C3.9465 14.9735 4.88885 15.4473 5.91253 15.7233V11.5615L3.12891 14.3451Z" fill="#0052B4"/>
<path d="M5.9125 0.274902C4.88881 0.55084 3.94647 1.02468 3.12891 1.65306L5.9125 4.43665V0.274902Z" fill="#0052B4"/>
<path d="M10.0864 15.7233C11.1101 15.4473 12.0525 14.9735 12.87 14.3451L10.0864 11.5615V15.7233Z" fill="#0052B4"/>
<path d="M11.5625 10.0869L14.3461 12.8705C14.9745 12.053 15.4483 11.1106 15.7243 10.0869H11.5625Z" fill="#0052B4"/>
<path d="M15.9323 6.95653H9.04353H9.0435V0.0677188C8.70191 0.02325 8.35366 0 8 0C7.64628 0 7.29809 0.02325 6.95653 0.0677188V6.95647V6.9565H0.0677188C0.02325 7.29809 0 7.64634 0 8C0 8.35372 0.02325 8.70191 0.0677188 9.04347H6.95647H6.9565V15.9323C7.29809 15.9768 7.64628 16 8 16C8.35366 16 8.70191 15.9768 9.04347 15.9323V9.04353V9.0435H15.9323C15.9768 8.70191 16 8.35372 16 8C16 7.64634 15.9768 7.29809 15.9323 6.95653Z" fill="#D80027"/>
<path d="M10.0869 10.0874L13.6568 13.6573C13.821 13.4932 13.9776 13.3216 14.127 13.1437L11.0707 10.0874H10.0869V10.0874Z" fill="#D80027"/>
<path d="M5.91317 10.0874H5.91311L2.34326 13.6572C2.50739 13.8214 2.67898 13.9781 2.85686 14.1275L5.91317 11.0711V10.0874Z" fill="#D80027"/>
<path d="M5.91268 5.91274V5.91268L2.34281 2.34277C2.17862 2.5069 2.022 2.67849 1.87256 2.85637L4.9289 5.91271H5.91268V5.91274Z" fill="#D80027"/>
<path d="M10.0869 5.91369L13.6568 2.34375C13.4927 2.17957 13.3211 2.02294 13.1432 1.87354L10.0869 4.92988V5.91369V5.91369Z" fill="#D80027"/>
</g>
<defs>
<clipPath id="clip0_5513_394817">
<rect width="16" height="16" fill="white"/>
</clipPath>
</defs>
</svg>
